<?xml version="1.0" encoding="utf-8"?>
<!-- Generator: Adobe Illustrator 24.1.2, SVG Export Plug-In . SVG Version: 6.00 Build 0)  -->
<svg version="1.1" xmlns="http://www.w3.org/2000/svg" xmlns:xlink="http://www.w3.org/1999/xlink" x="0px" y="0px" width="80px"
	 height="93px" viewBox="0 0 80 93" style="enable-background:new 0 0 80 93;" xml:space="preserve">
<style type="text/css">
	.st0{fill:#FFFFFF;}
	.st1{fill:#6A91C3;}
	.st2{fill:#4575B4;}
	.st3{fill:#74ADD1;}
	.st4{fill:#ABD9E9;}
	.st5{fill:#CDE8F2;}
	.st6{fill:#EEF7FB;}
</style>
<g id="Layer_4">
	<g>
		<polygon class="st0" points="1,69.02 1,23.98 40,1.46 79,23.98 79,69.02 40,91.54 		"/>
		<path class="st1" d="M40,2.62l38,21.94v43.88L40,90.38L2,68.44V24.56L40,2.62 M40,0.31L0,23.41v46.19l40,23.1l40-23.1V23.41
			L40,0.31L40,0.31z"/>
	</g>
</g>
<g id="Layer_7">
	<path class="st2" d="M26.81,47.73c0,2.06,1.68,3.74,3.74,3.74c2.06,0,3.74-1.68,3.74-3.74c0-2.06-1.68-3.74-3.74-3.74
		C28.49,43.98,26.81,45.67,26.81,47.73"/>
	<path class="st2" d="M17.25,47.73c0,2.06,1.68,3.74,3.74,3.74c2.06,0,3.74-1.68,3.74-3.74c0-2.06-1.68-3.74-3.74-3.74
		C18.93,43.98,17.25,45.67,17.25,47.73"/>
	<path class="st2" d="M7.8,47.73c0,2.06,1.68,3.74,3.74,3.74c2.06,0,3.74-1.68,3.74-3.74c0-2.06-1.68-3.74-3.74-3.74
		C9.49,43.98,7.8,45.67,7.8,47.73"/>
	<path class="st3" d="M36.4,47.73c0,2.06,1.68,3.74,3.74,3.74c2.06,0,3.74-1.68,3.74-3.74c0-2.06-1.68-3.74-3.74-3.74
		C38.09,43.98,36.4,45.67,36.4,47.73"/>
	<path class="st4" d="M45.95,47.73c0,2.06,1.68,3.74,3.74,3.74c2.06,0,3.74-1.68,3.74-3.74c0-2.06-1.68-3.74-3.74-3.74
		C47.63,43.98,45.95,45.67,45.95,47.73"/>
	<path class="st5" d="M55.38,47.73c0,2.06,1.68,3.74,3.74,3.74c2.06,0,3.74-1.68,3.74-3.74c0-2.06-1.68-3.74-3.74-3.74
		C57.07,43.98,55.38,45.67,55.38,47.73"/>
	<path class="st6" d="M64.63,47.73c0,2.06,1.68,3.74,3.74,3.74c2.06,0,3.74-1.68,3.74-3.74c0-2.06-1.68-3.74-3.74-3.74
		C66.31,43.98,64.63,45.67,64.63,47.73"/>
</g>
<g id="Layer_8">
</g>
<g id="Layer_2">
	<g>
		<g>
			<g>
				<path class="st2" d="M9.56,34.17H7.31V32.6h6.36v1.56h-2.25v6.61H9.56V34.17z"/>
				<path class="st2" d="M15.66,32.6h1.87v8.17h-1.87V32.6z"/>
				<path class="st2" d="M20.16,32.6h2.32c2.5,0,4.11,1.24,4.11,4.05c0,2.81-1.61,4.12-4,4.12h-2.42V32.6z M22.37,39.28
					c1.38,0,2.31-0.67,2.31-2.62c0-1.95-0.94-2.55-2.31-2.55h-0.34v5.17H22.37z"/>
				<path class="st2" d="M30.25,37.87l-2.46-5.26h2l0.72,1.87c0.22,0.61,0.43,1.18,0.66,1.81h0.05c0.23-0.63,0.46-1.2,0.69-1.81
					l0.72-1.87h1.95l-2.46,5.26v2.91h-1.87V37.87z"/>
				<path class="st2" d="M36.15,32.6h2.81c1.7,0,3.02,0.46,3.02,2.03c0,0.73-0.41,1.51-1.07,1.76v0.05
					c0.83,0.22,1.48,0.83,1.48,1.92c0,1.66-1.41,2.41-3.19,2.41h-3.04V32.6z M38.87,35.87c0.89,0,1.28-0.38,1.28-0.97
					c0-0.62-0.41-0.87-1.27-0.87h-0.87v1.83H38.87z M39.04,39.34c1,0,1.51-0.36,1.51-1.09c0-0.71-0.51-1-1.51-1h-1.02v2.09H39.04z"
					/>
				<path class="st2" d="M45.98,32.6h2.23l2.56,8.17h-1.97l-1.06-4.13c-0.23-0.81-0.44-1.78-0.66-2.63h-0.05
					c-0.2,0.86-0.41,1.82-0.64,2.63l-1.07,4.13h-1.91L45.98,32.6z M45.12,37.39h3.94v1.45h-3.94V37.39z"/>
				<path class="st2" d="M53.77,37.87l-2.46-5.26h2l0.72,1.87c0.22,0.61,0.43,1.18,0.66,1.81h0.05c0.23-0.63,0.46-1.2,0.69-1.81
					l0.72-1.87h1.95l-2.46,5.26v2.91h-1.87V37.87z"/>
				<path class="st2" d="M59.68,32.6h5.13v1.56h-3.26v1.62h2.78v1.56h-2.78v1.86h3.39v1.56h-5.25V32.6z"/>
				<path class="st2" d="M66.74,39.75l1.07-1.28c0.58,0.5,1.33,0.85,2,0.85c0.76,0,1.14-0.3,1.14-0.78c0-0.51-0.46-0.67-1.17-0.96
					l-1.06-0.45c-0.85-0.35-1.65-1.04-1.65-2.23c0-1.36,1.21-2.44,2.92-2.44c0.94,0,1.93,0.37,2.63,1.07l-0.94,1.18
					c-0.54-0.41-1.05-0.64-1.69-0.64c-0.63,0-1.03,0.26-1.03,0.72c0,0.5,0.53,0.67,1.25,0.96l1.04,0.42c1,0.4,1.62,1.07,1.62,2.22
					c0,1.36-1.13,2.54-3.09,2.54C68.71,40.93,67.57,40.53,66.74,39.75z"/>
			</g>
		</g>
	</g>
	<g>
		<g>
			<g>
				<path class="st2" d="M8.44,54.83h2.56c1.49,0,2.73,0.51,2.73,2.2c0,1.64-1.24,2.33-2.73,2.33h-0.87v2.42h-1.7V54.83z
					 M10.88,58.02c0.78,0,1.2-0.34,1.2-0.98c0-0.65-0.42-0.86-1.2-0.86h-0.74v1.84H10.88z M10.7,58.92l1.16-1.11l2.24,3.97h-1.9
					L10.7,58.92z"/>
				<path class="st2" d="M15.58,54.83h4.42v1.42h-2.72v1.25h2.32v1.42h-2.32v1.43h2.83v1.42h-4.53V54.83z"/>
				<path class="st2" d="M23.33,56.25h-1.88v-1.42h5.46v1.42h-1.88v5.53h-1.7V56.25z"/>
				<path class="st2" d="M28.48,54.83h1.7v2.64h2.25v-2.64h1.7v6.95h-1.7v-2.83h-2.25v2.83h-1.7V54.83z"/>
				<path class="st2" d="M36.23,54.83h1.7v6.95h-1.7V54.83z"/>
				<path class="st2" d="M40.03,54.83h1.74l1.68,3.29l0.68,1.54h0.04c-0.08-0.74-0.22-1.75-0.22-2.59v-2.24h1.62v6.95h-1.74
					l-1.68-3.3l-0.68-1.53h-0.04c0.08,0.78,0.22,1.75,0.22,2.58v2.25h-1.62V54.83z"/>
				<path class="st2" d="M47.67,54.83h1.7v2.72h0.04l1.92-2.72h1.86l-2.09,2.8l2.49,4.15h-1.86l-1.62-2.81l-0.74,1.01v1.8h-1.7
					V54.83z"/>
				<path class="st2" d="M54.82,54.83h1.7v6.95h-1.7V54.83z"/>
				<path class="st2" d="M58.62,54.83h1.74l1.68,3.29l0.68,1.54h0.04c-0.08-0.74-0.22-1.75-0.22-2.59v-2.24h1.62v6.95h-1.74
					l-1.68-3.3l-0.68-1.53h-0.04c0.08,0.78,0.22,1.75,0.22,2.58v2.25h-1.62V54.83z"/>
				<path class="st2" d="M65.95,58.35c0-2.32,1.57-3.65,3.43-3.65c1.02,0,1.75,0.43,2.23,0.91l-0.89,1.09
					c-0.34-0.31-0.7-0.53-1.28-0.53c-1.01,0-1.74,0.8-1.74,2.13c0,1.37,0.61,2.15,1.89,2.15c0.24,0,0.49-0.06,0.64-0.17v-1.09h-1.09
					v-1.38h2.6v3.26c-0.49,0.47-1.34,0.85-2.32,0.85C67.47,61.91,65.95,60.71,65.95,58.35z"/>
			</g>
		</g>
	</g>
</g>
<g id="Layer_1">
</g>
<g id="Layer_3">
</g>
<g id="Layer_5">
</g>
<g id="Layer_6">
</g>
</svg>
